<svg width="37" height="18" viewBox="0 0 37 18" fill="none" xmlns="http://www.w3.org/2000/svg">
<g filter="url(#filter0_di_92_747)">
<rect x="1.53394" y="1.32137" width="33.9066" height="15.5001" rx="4.84379" fill="#F05023" fill-opacity="0.12" shape-rendering="crispEdges"/>
<path d="M13.1537 5.47671V13.2268H11.9049L8.25313 7.9478H8.1888V13.2268H6.78486V5.47671H8.04122L11.6892 10.7595H11.7573V5.47671H13.1537ZM14.6835 13.2268V5.47671H19.724V6.6536H16.0874V8.75762H19.4629V9.93451H16.0874V12.0499H19.7543V13.2268H14.6835ZM22.7874 13.2268L20.6001 5.47671H22.11L23.5064 11.1719H23.5783L25.0692 5.47671H26.4429L27.9377 11.1757H28.0058L29.4022 5.47671H30.9121L28.7248 13.2268H27.3398L25.7882 7.78886H25.7277L24.1724 13.2268H22.7874Z" fill="#6E3AFF"/>
</g>
<defs>
<filter id="filter0_di_92_747" x="0.565177" y="0.352607" width="35.8441" height="17.4377" filterUnits="userSpaceOnUse" color-interpolation-filters="sRGB">
<feFlood flood-opacity="0" result="BackgroundImageFix"/>
<feColorMatrix in="SourceAlpha" type="matrix" values="0 0 0 0 0 0 0 0 0 0 0 0 0 0 0 0 0 0 127 0" result="hardAlpha"/>
<feMorphology radius="0.968759" operator="dilate" in="SourceAlpha" result="effect1_dropShadow_92_747"/>
<feOffset/>
<feComposite in2="hardAlpha" operator="out"/>
<feColorMatrix type="matrix" values="0 0 0 0 0.941176 0 0 0 0 0.313726 0 0 0 0 0.137255 0 0 0 0.2 0"/>
<feBlend mode="normal" in2="BackgroundImageFix" result="effect1_dropShadow_92_747"/>
<feBlend mode="normal" in="SourceGraphic" in2="effect1_dropShadow_92_747" result="shape"/>
<feColorMatrix in="SourceAlpha" type="matrix" values="0 0 0 0 0 0 0 0 0 0 0 0 0 0 0 0 0 0 127 0" result="hardAlpha"/>
<feOffset dy="0.726569"/>
<feGaussianBlur stdDeviation="0.363285"/>
<feComposite in2="hardAlpha" operator="arithmetic" k2="-1" k3="1"/>
<feColorMatrix type="matrix" values="0 0 0 0 1 0 0 0 0 1 0 0 0 0 1 0 0 0 0.64 0"/>
<feBlend mode="normal" in2="shape" result="effect2_innerShadow_92_747"/>
</filter>
</defs>
</svg>
